<svg width="30" height="30" viewBox="0 0 30 30" fill="none" xmlns="http://www.w3.org/2000/svg">
    <g opacity="0.5">
        <path d="M26.9409 13.4309L24.5436 11.2037L22.4169 6.95034C22.2343 6.65336 21.9783 6.40841 21.6736 6.2391C21.3688 6.06979 21.0256 5.98182 20.6769 5.98367H8.69028C8.34165 5.98182 7.99842 6.06979 7.69367 6.2391C7.38891 6.40841 7.13289 6.65336 6.95028 6.95034L4.82361 11.2037L2.42628 13.4309C2.32861 13.5214 2.25072 13.6312 2.19749 13.7533C2.14426 13.8754 2.11684 14.0072 2.11694 14.1404V22.417C2.11694 22.6734 2.21879 22.9193 2.40007 23.1005C2.58136 23.2818 2.82723 23.3837 3.08361 23.3837H6.95028C7.33694 23.3837 7.91694 22.997 7.91694 22.6103V21.4503H21.4503V22.417C21.4503 22.8037 21.8369 23.3837 22.2236 23.3837H26.2836C26.54 23.3837 26.7859 23.2818 26.9671 23.1005C27.1484 22.9193 27.2503 22.6734 27.2503 22.417V14.1404C27.2504 14.0072 27.223 13.8754 27.1697 13.7533C27.1165 13.6312 27.0386 13.5214 26.9409 13.4309ZM8.88361 7.917H20.4836L22.4169 11.7837H6.95028L8.88361 7.917ZM9.85028 16.8103C9.85028 17.197 9.27028 17.5837 8.88361 17.5837H4.82361C4.43694 17.5837 4.05028 17.0037 4.05028 16.617V14.4903C4.24361 13.9103 4.63028 13.5237 5.21028 13.717L9.07694 14.4903C9.46361 14.4903 9.85028 15.0703 9.85028 15.457V16.8103ZM25.3169 16.617C25.3169 17.0037 24.9303 17.5837 24.5436 17.5837H20.4836C20.0969 17.5837 19.5169 17.197 19.5169 16.8103V15.457C19.5169 15.0703 19.9036 14.4903 20.2903 14.4903L24.1569 13.717C24.7369 13.5237 25.1236 13.9103 25.3169 14.4903V16.617Z" fill="#22DFF9"/>
    </g>
</svg>
