<svg width="45" height="31" viewBox="0 0 45 31" fill="none" xmlns="http://www.w3.org/2000/svg">
    <path d="M44.4405 3.57829V27.4239C44.4405 28.4425 44.0684 29.2935 43.3243 29.977C42.5801 30.6605 41.6515 31.0015 40.5385 31H4.85224C3.74082 31 2.81303 30.659 2.06886 29.977C1.3247 29.295 0.951806 28.4432 0.950195 27.4217V3.57829C0.950195 2.55824 1.32308 1.70721 2.06886 1.02521C2.81464 0.343214 3.74243 0.00147619 4.85224 0H40.5385C41.6499 0 42.5777 0.341738 43.3218 1.02521C44.066 1.70869 44.4389 2.55971 44.4405 3.57829ZM3.36632 8.432H42.0244V3.57829C42.0244 3.23729 41.8698 2.92433 41.5605 2.63943C41.2512 2.35452 40.9106 2.21281 40.5385 2.21429H4.85224C4.48177 2.21429 4.1411 2.356 3.83022 2.63943C3.51935 2.92286 3.36471 3.23581 3.36632 3.57829V8.432ZM3.36632 13.7109V27.4239C3.36632 27.7634 3.52096 28.0757 3.83022 28.3606C4.13949 28.6455 4.48016 28.7872 4.85224 28.7857H40.5385C40.9089 28.7857 41.2496 28.644 41.5605 28.3606C41.8714 28.0771 42.026 27.7649 42.0244 27.4239V13.7109H3.36632Z" fill="#212830"/>
</svg>
