<svg width="45" height="32" viewBox="0 0 45 32" fill="none" xmlns="http://www.w3.org/2000/svg">
    <path d="M0.980225 0H44.1254V31.25H0.980225V0ZM39.8109 27.0833V4.16667H5.29474V27.0833H39.8109ZM33.3391 6.25C33.3391 7.35507 33.7937 8.41488 34.6028 9.19628C35.4119 9.97768 36.5093 10.4167 37.6536 10.4167V20.8333C36.5093 20.8333 35.4119 21.2723 34.6028 22.0537C33.7937 22.8351 33.3391 23.8949 33.3391 25H11.7665C11.7665 23.8949 11.3119 22.8351 10.5028 22.0537C9.69369 21.2723 8.59628 20.8333 7.452 20.8333V10.4167C8.59628 10.4167 9.69369 9.97768 10.5028 9.19628C11.3119 8.41488 11.7665 7.35507 11.7665 6.25H33.3391ZM33.3391 16.6667V14.5833C33.3391 12.2917 31.8937 10.4167 30.1032 10.4167C28.3127 10.4167 26.8673 12.2917 26.8673 14.5833V16.6667C26.8673 18.9583 28.3127 20.8333 30.1032 20.8333C31.8937 20.8333 33.3391 18.9583 33.3391 16.6667ZM30.1032 12.5C30.3893 12.5 30.6636 12.6097 30.8659 12.8051C31.0682 13.0004 31.1818 13.2654 31.1818 13.5417V17.7083C31.1818 17.9846 31.0682 18.2496 30.8659 18.4449C30.6636 18.6403 30.3893 18.75 30.1032 18.75C29.8171 18.75 29.5428 18.6403 29.3405 18.4449C29.1382 18.2496 29.0246 17.9846 29.0246 17.7083V13.5417C29.0246 13.2654 29.1382 13.0004 29.3405 12.8051C29.5428 12.6097 29.8171 12.5 30.1032 12.5ZM24.7101 16.6667V14.5833C24.7101 12.2917 23.2647 10.4167 21.4742 10.4167C19.6836 10.4167 18.2383 12.2917 18.2383 14.5833V16.6667C18.2383 18.9583 19.6836 20.8333 21.4742 20.8333C23.2647 20.8333 24.7101 18.9583 24.7101 16.6667ZM21.4742 12.5C21.7602 12.5 22.0346 12.6097 22.2369 12.8051C22.4392 13.0004 22.5528 13.2654 22.5528 13.5417V17.7083C22.5528 17.9846 22.4392 18.2496 22.2369 18.4449C22.0346 18.6403 21.7602 18.75 21.4742 18.75C21.1881 18.75 20.9137 18.6403 20.7115 18.4449C20.5092 18.2496 20.3955 17.9846 20.3955 17.7083V13.5417C20.3955 13.2654 20.5092 13.0004 20.7115 12.8051C20.9137 12.6097 21.1881 12.5 21.4742 12.5ZM13.9238 20.8333H16.081V10.4167H13.9238L11.7665 11.4583V13.5417L13.9238 12.5V20.8333Z" fill="#212830"/>
</svg>
