<svg width="36" height="33" viewBox="0 0 36 33" fill="none" xmlns="http://www.w3.org/2000/svg">
    <path d="M20.7064 25.9957V29.7H17.2893V26.1641C14.3643 25.9991 12.0509 25.1922 10.0434 23.199L12.9787 20.328C14.4463 21.7635 16.4351 22.242 18.5861 22.242C21.26 22.242 22.6952 21.2536 22.6952 19.4337C22.6952 18.6367 22.468 17.9669 21.9776 17.5197C21.5214 17.1056 21.0003 16.8811 19.9239 16.7227L17.1185 16.3399C15.1297 16.0528 13.6638 15.4473 12.6182 14.4573C11.511 13.3733 10.9558 11.9064 10.9558 9.99075C10.9558 6.435 13.317 3.8148 17.2893 3.22575V0H20.7064V3.1878C23.0677 3.42705 24.918 4.2108 26.5411 5.74695L23.6725 8.52225C22.2048 7.14945 20.445 6.9597 18.9108 6.9597C16.4983 6.9597 15.3245 8.2665 15.3245 9.8307C15.3245 10.4049 15.521 11.0121 16.0096 11.4576C16.4658 11.8734 17.2159 12.2232 18.1624 12.3502L20.8995 12.733C23.0198 13.0202 24.3559 13.5943 25.3349 14.487C26.5753 15.6354 27.1289 17.2953 27.1289 19.305C27.1289 23.0175 24.4516 25.3473 20.7064 25.9957Z" fill="#212830"/>
</svg>
