<svg width="62" height="62" viewBox="0 0 62 62" fill="none" xmlns="http://www.w3.org/2000/svg">
    <path d="M20.5157 17.6563C19.1962 17.6563 17.9062 17.265 16.809 16.5318C15.7118 15.7987 14.8567 14.7567 14.3517 13.5376C13.8467 12.3185 13.7146 10.977 13.972 9.68276C14.2295 8.38854 14.8649 7.19973 15.798 6.26665C16.7311 5.33357 17.9199 4.69814 19.2141 4.4407C20.5083 4.18327 21.8498 4.31539 23.0689 4.82037C24.2881 5.32535 25.3301 6.1805 26.0632 7.27768C26.7963 8.37487 27.1876 9.66481 27.1876 10.9844C27.1856 12.7533 26.482 14.4491 25.2312 15.6999C23.9804 16.9507 22.2846 17.6542 20.5157 17.6563ZM20.5157 8.125C19.9502 8.125 19.3974 8.2927 18.9271 8.60689C18.4569 8.92109 18.0904 9.36766 17.874 9.89014C17.6576 10.4126 17.601 10.9876 17.7113 11.5422C17.8216 12.0969 18.0939 12.6064 18.4938 13.0063C18.8937 13.4062 19.4032 13.6785 19.9579 13.7888C20.5126 13.8991 21.0875 13.8425 21.61 13.6261C22.1324 13.4097 22.579 13.0432 22.8932 12.573C23.2074 12.1027 23.3751 11.5499 23.3751 10.9844C23.3751 10.226 23.0738 9.49873 22.5376 8.96249C22.0014 8.42626 21.2741 8.125 20.5157 8.125ZM43.3412 60.1904L37.367 46.25H23.8307C22.1506 46.2476 20.5181 45.6917 19.1856 44.6683C17.8531 43.6449 16.895 42.2111 16.4592 40.5884L13.3444 28.9088C12.8366 27.0041 13.1062 24.9757 14.0939 23.2697C15.0817 21.5638 16.7067 20.3201 18.6114 19.8122C20.5161 19.3044 22.5446 19.574 24.2505 20.5617C25.9565 21.5495 27.2002 23.1745 27.708 25.0792L29.2845 31H40.5314V34.8125H26.3565L24.0251 26.0628C23.7541 25.1621 23.1433 24.4021 22.322 23.9437C21.5006 23.4853 20.5331 23.3644 19.6242 23.6066C18.7153 23.8488 17.9363 24.4351 17.452 25.2415C16.9676 26.0478 16.816 27.011 17.0292 27.9271L20.1421 39.6048C20.3597 40.417 20.8391 41.1347 21.506 41.6468C22.1728 42.1589 22.9899 42.4368 23.8307 42.4375H39.8813L46.8468 58.6883L43.3412 60.1904ZM57.6876 11.9375H50.0626V4.3125H46.2501V11.9375H38.6251V15.75H46.2501V23.375H50.0626V15.75H57.6876V11.9375Z" fill="#354D56"/>
</svg>
