<svg width="84" height="54" viewBox="0 0 84 54" fill="none" xmlns="http://www.w3.org/2000/svg">
    <path d="M43.7051 4.3C47.2584 4.30091 50.7622 5.1323 53.9371 6.72783C57.112 8.32336 59.8701 10.6389 61.9912 13.4896C64.1123 16.3403 65.5378 19.6473 66.1539 23.1468C66.77 26.6462 66.5596 30.2413 65.5396 33.645C64.5196 37.0487 62.7182 40.1669 60.2791 42.7508C57.84 45.3347 54.8307 47.3128 51.4914 48.5271C48.1521 49.7415 44.5752 50.1586 41.046 49.7451C37.5169 49.3316 34.1332 48.099 31.1651 46.1456V46.1H31.0967C27.0147 43.3923 23.9132 39.442 22.2516 34.834C20.5901 30.226 20.4567 25.2054 21.8713 20.5157C23.2859 15.826 26.1732 11.7166 30.1057 8.79596C34.0381 5.87535 38.8067 4.29888 43.7051 4.3ZM21.8741 42.3C22.8291 43.668 23.9007 44.9347 25.0889 46.1H7.60508C7.10117 46.1 6.61789 46.3002 6.26158 46.6565C5.90526 47.0128 5.70508 47.4961 5.70508 48C5.70508 48.5039 5.90526 48.9872 6.26158 49.3435C6.61789 49.6998 7.10117 49.9 7.60508 49.9H29.9947C34.0307 52.3254 38.6383 53.6359 43.3466 53.6977C48.055 53.7595 52.6953 52.5704 56.7937 50.2518C60.892 47.9332 64.3014 44.5682 66.6736 40.5007C69.0458 36.4331 70.2958 31.8087 70.2958 27.1C70.2958 22.3913 69.0458 17.7669 66.6736 13.6993C64.3014 9.63179 60.892 6.26683 56.7937 3.94823C52.6953 1.62963 48.055 0.440489 43.3466 0.502292C38.6383 0.564095 34.0307 1.87463 29.9947 4.3H11.4051C10.9012 4.3 10.4179 4.50018 10.0616 4.8565C9.70526 5.21282 9.50508 5.69609 9.50508 6.2C9.50508 6.70391 9.70526 7.18718 10.0616 7.5435C10.4179 7.89982 10.9012 8.1 11.4051 8.1H25.0889C22.5577 10.5741 20.5473 13.5298 19.1762 16.7929C17.805 20.056 17.1008 23.5605 17.1051 27.1C17.1051 31.1812 18.0247 35.042 19.6663 38.5H15.2051C14.7012 38.5 14.2179 38.7002 13.8616 39.0565C13.5053 39.4128 13.3051 39.8961 13.3051 40.4C13.3051 40.9039 13.5053 41.3872 13.8616 41.7435C14.2179 42.0998 14.7012 42.3 15.2051 42.3H21.8741ZM33.0537 19.1352C31.3342 21.4346 30.4051 24.2288 30.4051 27.1C30.4051 30.0868 31.3931 32.8456 33.0537 35.0648L37.1577 30.9608C36.4682 29.791 36.1047 28.4579 36.1051 27.1C36.1051 25.694 36.4889 24.3716 37.1577 23.2392L33.0537 19.1352ZM35.7403 16.4486L39.8443 20.5526C41.0141 19.8631 42.3472 19.4997 43.7051 19.5C45.1111 19.5 46.4335 19.8838 47.5659 20.5526L51.6699 16.4486C49.3704 14.7292 46.5763 13.8 43.7051 13.8C40.7183 13.8 37.9595 14.788 35.7403 16.4486ZM54.3603 19.1352L50.2563 23.2392C50.9455 24.4092 51.3087 25.7426 51.3081 27.1005C51.3074 28.4585 50.9429 29.7915 50.2525 30.9608L54.3565 35.0648C56.0209 32.8456 57.0051 30.0868 57.0051 27.1C57.0051 24.1132 56.0209 21.3544 54.3603 19.1352ZM51.6661 37.7552L47.5621 33.6512C46.393 34.3387 45.0613 34.7008 43.7051 34.7C42.2991 34.7 40.9767 34.3162 39.8443 33.6474L35.7403 37.7514C37.9595 39.4158 40.7183 40.4 43.7051 40.4C46.6919 40.4 49.4507 39.412 51.6699 37.7514M26.6051 27.1C26.6051 24.8544 27.0474 22.6308 27.9067 20.5561C28.7661 18.4814 30.0257 16.5964 31.6136 15.0085C33.2014 13.4206 35.0865 12.161 37.1612 11.3017C39.2359 10.4423 41.4595 10 43.7051 10C45.9507 10 48.1743 10.4423 50.249 11.3017C52.3236 12.161 54.2087 13.4206 55.7966 15.0085C57.3845 16.5964 58.6441 18.4814 59.5034 20.5561C60.3628 22.6308 60.8051 24.8544 60.8051 27.1C60.8051 31.6352 59.0035 35.9847 55.7966 39.1915C52.5897 42.3984 48.2403 44.2 43.7051 44.2C39.1699 44.2 34.8204 42.3984 31.6136 39.1915C28.4067 35.9847 26.6051 31.6352 26.6051 27.1ZM39.9051 27.1C39.9051 28.1078 40.3054 29.0744 41.0181 29.787C41.7307 30.4996 42.6973 30.9 43.7051 30.9C44.7129 30.9 45.6794 30.4996 46.3921 29.787C47.1047 29.0744 47.5051 28.1078 47.5051 27.1C47.5051 26.0922 47.1047 25.1256 46.3921 24.413C45.6794 23.7004 44.7129 23.3 43.7051 23.3C42.6973 23.3 41.7307 23.7004 41.0181 24.413C40.3054 25.1256 39.9051 26.0922 39.9051 27.1Z"
          fill="#354D56"/>
</svg>
