<svg width="64" height="52" viewBox="0 0 64 52" fill="none" xmlns="http://www.w3.org/2000/svg">
    <path d="M27.0891 37.0834C28.3558 38.35 29.9919 38.9707 31.9975 38.9454C34.003 38.92 35.4808 38.1938 36.4308 36.7667L54.1641 10.1667L27.5641 27.9C26.1391 28.85 25.3876 30.3014 25.3095 32.2542C25.2314 34.207 25.8246 35.8167 27.0891 37.0834ZM31.9975 0.666687C35.1114 0.666687 38.107 1.10158 40.9845 1.97135C43.8619 2.84113 46.5663 4.14791 49.0975 5.89169L43.0808 9.69169C41.3391 8.79447 39.532 8.12208 37.6595 7.67452C35.7869 7.22696 33.8996 7.00213 31.9975 7.00002C24.978 7.00002 19.0004 9.46791 14.0646 14.4037C9.12887 19.3395 6.66203 25.316 6.66414 32.3334C6.66414 34.55 6.96814 36.7403 7.57614 38.9042C8.18414 41.0681 9.04125 43.1 10.1475 45H53.8475C55.0614 42.9945 55.9459 40.9097 56.5011 38.7459C57.0564 36.582 57.3329 34.3389 57.3308 32.0167C57.3308 30.1167 57.106 28.2695 56.6563 26.475C56.2066 24.6806 55.5343 22.9389 54.6391 21.25L58.4391 15.2334C60.0225 17.7139 61.2765 20.3528 62.2011 23.15C63.1258 25.9472 63.6135 28.85 63.6641 31.8584C63.7148 34.8667 63.3718 37.7431 62.635 40.4875C61.8982 43.232 60.8163 45.8445 59.3891 48.325C58.8086 49.275 58.0169 50.0139 57.0141 50.5417C56.0114 51.0695 54.9558 51.3334 53.8475 51.3334H10.1475C9.03914 51.3334 7.98359 51.0695 6.98081 50.5417C5.97803 50.0139 5.18637 49.275 4.60581 48.325C3.23359 45.95 2.17803 43.4304 1.43914 40.7662C0.700255 38.102 0.330811 35.291 0.330811 32.3334C0.330811 27.9528 1.16259 23.8499 2.82614 20.0245C4.4897 16.1992 6.75914 12.8478 9.63448 9.97035C12.5098 7.09291 15.8739 4.82347 19.7266 3.16202C23.5794 1.50058 27.6697 0.668798 31.9975 0.666687Z"
          fill="#354D56"/>
</svg>
