<svg width="64" height="65" viewBox="0 0 64 65" fill="none" xmlns="http://www.w3.org/2000/svg">
    <path d="M58.1332 37.836C57.0282 43.23 54.2823 48.1503 50.2717 51.9227C46.2611 55.6951 41.182 58.135 35.7306 58.908V53.508C39.7567 52.79 43.492 50.9312 46.4928 48.1526C49.4935 45.374 51.6336 41.7924 52.6586 37.8333L58.1332 37.836ZM11.3386 37.836C12.352 41.7498 14.4554 45.2957 17.4043 48.0614C20.3532 50.8272 24.0265 52.6992 27.9972 53.46V58.868C22.5999 58.0464 17.5843 55.5897 13.6266 51.8289C9.66896 48.0682 6.95961 43.1844 5.86389 37.836H11.3386ZM47.9972 29.8333V35.1666H39.9972C38.6521 35.1669 37.3568 35.6754 36.3708 36.5902C35.3847 37.5051 34.7808 38.7587 34.6799 40.1L34.6639 40.5V48.5H29.3305V40.5C29.331 39.1544 28.8228 37.8585 27.9079 36.8718C26.993 35.8852 25.739 35.2809 24.3972 35.18L23.9972 35.1666H15.9999V29.8333H47.9972ZM31.9972 5.83331C45.8265 5.83331 57.1972 16.3586 58.5332 29.8333H53.1679C52.5218 24.6741 50.0141 19.9283 46.1157 16.4876C42.2174 13.047 37.1968 11.1483 31.9972 11.1483C26.7977 11.1483 21.7771 13.047 17.8787 16.4876C13.9804 19.9283 11.4726 24.6741 10.8266 29.8333H5.46655C6.80522 16.3586 18.1732 5.83331 31.9999 5.83331" fill="#354D56"/>
</svg>
