<svg width="15" height="59" viewBox="0 0 15 59" fill="none" xmlns="http://www.w3.org/2000/svg">
    <path d="M14.1094 6.6413V0.624006C14.1094 0.102456 13.8812 -0.185565 13.727 0.133593L0.364633 27.5422C0.251101 27.7741 0.159235 28.071 0.0960423 28.4103C0.0328496 28.7496 0 29.1223 0 29.5C0 29.8777 0.0328496 30.2504 0.0960423 30.5897C0.159235 30.929 0.251101 31.2259 0.364633 31.4578L13.727 58.8664C13.8841 59.1856 14.1094 58.8975 14.1094 58.376V52.3587C14.1094 51.9773 14.0412 51.6114 13.9286 51.3779L3.25765 29.5039L13.9286 7.62212C14.0412 7.38859 14.1094 7.02273 14.1094 6.6413Z" fill="#22E0FA"/>
</svg>
