<svg width="15" height="59" viewBox="0 0 15 59" fill="none" xmlns="http://www.w3.org/2000/svg">
    <path d="M-3.76651e-05 52.3587L-3.81017e-05 58.376C-3.81395e-05 58.8975 0.228203 59.1856 0.382339 58.8664L13.7447 31.4578C13.8583 31.2259 13.9501 30.929 14.0133 30.5897C14.0765 30.2504 14.1094 29.8777 14.1094 29.5C14.1094 29.1223 14.0765 28.7496 14.0133 28.4103C13.9501 28.071 13.8583 27.7741 13.7447 27.5422L0.382343 0.133585C0.225243 -0.185571 -3.38735e-05 0.10245 -3.39113e-05 0.623999L-3.43479e-05 6.64129C-3.43756e-05 7.02273 0.0681409 7.38859 0.180778 7.62212L10.8517 29.4961L0.180775 51.3779C0.0681377 51.6114 -3.76374e-05 51.9773 -3.76651e-05 52.3587Z" fill="#22E0FA"/>
</svg>
