<svg width="50" height="50" viewBox="0 0 50 50" fill="none" xmlns="http://www.w3.org/2000/svg">
    <path d="M46.1334 22.84L42 19L38.3334 11.6667C38.0185 11.1547 37.5771 10.7324 37.0517 10.4404C36.5262 10.1485 35.9345 9.99686 35.3334 10H14.6667C14.0656 9.99686 13.4739 10.1485 12.9484 10.4404C12.423 10.7324 11.9816 11.1547 11.6667 11.6667L8.00004 19L3.86671 22.84C3.69832 22.9962 3.56403 23.1855 3.47225 23.396C3.38048 23.6065 3.33319 23.8337 3.33337 24.0634V38.3334C3.33337 38.7754 3.50897 39.1993 3.82153 39.5119C4.13409 39.8245 4.55801 40 5.00004 40H11.6667C12.3334 40 13.3334 39.3334 13.3334 38.6667V36.6667H36.6667V38.3334C36.6667 39 37.3334 40 38 40H45C45.4421 40 45.866 39.8245 46.1786 39.5119C46.4911 39.1993 46.6667 38.7754 46.6667 38.3334V24.0634C46.6669 23.8337 46.6196 23.6065 46.5278 23.396C46.4361 23.1855 46.3018 22.9962 46.1334 22.84ZM15 13.3334H35L38.3334 20H11.6667L15 13.3334ZM16.6667 28.6667C16.6667 29.3334 15.6667 30 15 30H8.00004C7.33337 30 6.66671 29 6.66671 28.3334V24.6667C7.00004 23.6667 7.66671 23 8.66671 23.3334L15.3334 24.6667C16 24.6667 16.6667 25.6667 16.6667 26.3334V28.6667ZM43.3334 28.3334C43.3334 29 42.6667 30 42 30H35C34.3334 30 33.3334 29.3334 33.3334 28.6667V26.3334C33.3334 25.6667 34 24.6667 34.6667 24.6667L41.3334 23.3334C42.3334 23 43 23.6667 43.3334 24.6667V28.3334Z" fill="#22E0FA"/>
</svg>
