<svg width="54" height="54" viewBox="0 0 54 54" fill="none" xmlns="http://www.w3.org/2000/svg">
    <g clip-path="url(#clip0_199_218)">
        <path d="M22.5 11.25C22.5 10.6533 22.7371 10.081 23.1591 9.65901C23.581 9.23705 24.1533 9 24.75 9H30.6315C32.0057 9.00006 33.3471 9.41952 34.4765 10.2023C35.6059 10.9852 36.4695 12.094 36.9518 13.3808L42.1133 27.144C44.2611 27.5359 46.1932 28.695 47.55 30.4054C48.9068 32.1158 49.5958 34.261 49.4887 36.4416C49.3816 38.6222 48.4857 40.6896 46.9679 42.2588C45.45 43.828 43.4136 44.7922 41.2377 44.9718C39.0619 45.1513 36.895 44.5341 35.1404 43.2349C33.3858 41.9358 32.1631 40.0432 31.6999 37.9097C31.2368 35.7762 31.5648 33.547 32.6228 31.6373C33.6809 29.7276 35.3969 28.2675 37.4513 27.5287L36.4095 24.75L20.7225 30.6315C21.9309 32.2574 22.5554 34.2435 22.495 36.2683C22.4346 38.2932 21.6929 40.2385 20.3897 41.7895C19.0866 43.3405 17.2983 44.4065 15.3141 44.8151C13.3299 45.2236 11.266 44.9508 9.45608 44.0408C7.6462 43.1308 6.19626 41.6368 5.34082 39.8005C4.48538 37.9642 4.27448 35.893 4.74223 33.9219C5.20998 31.9509 6.32902 30.1953 7.91833 28.9391C9.50765 27.683 11.4743 26.9998 13.5 27H13.5495L11.0498 22.5H9.00005C8.40331 22.5 7.83102 22.2629 7.40906 21.841C6.9871 21.419 6.75005 20.8467 6.75005 20.25C6.75005 19.6533 6.9871 19.081 7.40906 18.659C7.83102 18.2371 8.40331 18 9.00005 18H18C18.5968 18 19.1691 18.2371 19.591 18.659C20.013 19.081 20.25 19.6533 20.25 20.25C20.25 20.8467 20.013 21.419 19.591 21.841C19.1691 22.2629 18.5968 22.5 18 22.5H16.2L18.5085 26.6558L34.83 20.5357L32.7375 14.9603C32.5768 14.5315 32.2891 14.1619 31.9128 13.901C31.5364 13.6401 31.0895 13.5002 30.6315 13.5H24.75C24.1533 13.5 23.581 13.2629 23.1591 12.841C22.7371 12.419 22.5 11.8467 22.5 11.25Z" fill="#22E0FA"/>
    </g>
    <defs>
        <clipPath id="clip0_199_218">
            <rect width="54" height="54" fill="white"/>
        </clipPath>
    </defs>
</svg>
