<svg width="55" height="55" viewBox="0 0 55 55" fill="none" xmlns="http://www.w3.org/2000/svg">
    <g clip-path="url(#clip0_199_210)">
        <path d="M31.3352 15.931C30.8714 16.0305 30.4576 16.2908 30.1673 16.6659C29.8769 17.0411 29.7286 17.5069 29.7487 17.9808V18.1141L10.5769 17.0564C10.3159 17.0541 10.0571 17.1039 9.81544 17.2026C9.57382 17.3014 9.35428 17.4473 9.1696 17.6318C8.98493 17.8163 8.83881 18.0357 8.73977 18.2772C8.64072 18.5187 8.59073 18.7775 8.5927 19.0385C8.59045 19.2997 8.64023 19.5587 8.73915 19.8005C8.83807 20.0423 8.98414 20.2619 9.16884 20.4466C9.35355 20.6313 9.57318 20.7774 9.81494 20.8763C10.0567 20.9752 10.3157 21.025 10.5769 21.0227L29.7487 19.9651V24.3926C28.2376 25.0748 26.9357 26.1475 25.9769 27.5001H5.28847C4.23078 27.5001 3.97905 29.2854 5.15521 29.4843C5.47886 29.5372 16.9189 32.3295 23.6648 33.9774C23.5442 34.9229 23.4681 35.8812 23.4681 36.886C23.4681 44.3427 29.9814 44.3576 38.0114 44.3576C46.0414 44.3576 52.4869 44.3449 52.4869 36.886C52.4869 29.4356 42.7371 23.4004 34.705 23.4004C34.3623 23.4004 34.0387 23.447 33.715 23.4681V19.9651L52.8846 21.0227C53.1458 21.025 53.4049 20.9752 53.6466 20.8763C53.8884 20.7774 54.108 20.6313 54.2927 20.4466C54.4774 20.2619 54.6235 20.0423 54.7224 19.8005C54.8213 19.5587 54.8711 19.2997 54.8689 19.0385C54.8711 18.7773 54.8213 18.5183 54.7224 18.2765C54.6235 18.0348 54.4774 17.8151 54.2927 17.6304C54.108 17.4457 53.8884 17.2996 53.6466 17.2007C53.4049 17.1018 53.1458 17.052 52.8846 17.0543L33.7129 18.112V17.9808C33.7196 17.6987 33.6667 17.4183 33.5578 17.158C33.4489 16.8976 33.2864 16.6631 33.0808 16.4697C32.8753 16.2764 32.6313 16.1285 32.3648 16.0356C32.0983 15.9428 31.8153 15.9072 31.534 15.931C31.4671 15.9277 31.4021 15.9277 31.3352 15.931ZM5.28847 23.667C3.99136 23.667 2.74738 24.1823 1.83018 25.0994C0.912981 26.0166 0.397705 27.2606 0.397705 28.5577C0.397705 29.8549 0.912981 31.0988 1.83018 32.016C2.74738 32.9332 3.99136 33.4485 5.28847 33.4485C6.03223 33.4464 6.76542 33.2723 7.43074 32.9398C8.09605 32.6074 8.67546 32.1255 9.12367 31.532L6.5429 30.8043C6.16847 31.0158 5.74751 31.202 5.28847 31.202C3.83732 31.202 2.64424 30.0068 2.64424 28.5577C2.64424 27.1087 3.83944 25.9135 5.28847 25.9135C5.99078 25.9135 6.60424 26.1885 7.07386 26.6412H9.78367C9.41254 25.7565 8.78737 25.0016 7.98722 24.4722C7.18708 23.9428 6.2479 23.6626 5.28847 23.667ZM38.3414 27.6312C42.1067 27.6312 48.5883 31.1491 48.5883 35.5639C48.5883 37.2181 46.8748 38.0114 41.0512 38.0114C37.2308 38.0114 36.1604 36.2345 36.1604 33.9774C36.1604 30.5652 36.5792 27.6312 38.3414 27.6312ZM52.4891 44.4908C52.161 44.5618 51.856 44.7137 51.6017 44.9328C51.3475 45.152 51.1522 45.4313 51.0337 45.7452C51.0548 45.7241 51.1077 45.7093 50.9004 45.8108C50.3144 46.1049 48.4677 46.6718 44.4231 46.6718H21.1539C20.8663 46.6247 20.5719 46.6407 20.2912 46.7186C20.0104 46.7966 19.7499 46.9347 19.5279 47.1234C19.3058 47.312 19.1274 47.5467 19.005 47.8112C18.8827 48.0756 18.8193 48.3636 18.8193 48.655C18.8193 48.9464 18.8827 49.2343 19.005 49.4987C19.1274 49.7632 19.3058 49.9979 19.5279 50.1865C19.7499 50.3752 20.0104 50.5133 20.2912 50.5913C20.5719 50.6693 20.8663 50.6852 21.1539 50.6381H44.4231C48.8041 50.6381 51.15 50.1452 52.6858 49.3816C53.4537 48.9987 54.0417 48.527 54.4056 47.9918C54.5875 47.7252 54.7271 47.4481 54.8012 47.1985C54.8773 46.951 54.8689 46.6062 54.8689 46.6062C54.8852 46.3183 54.8393 46.0302 54.7344 45.7616C54.6295 45.493 54.468 45.2501 54.2609 45.0494C54.0538 44.8488 53.806 44.695 53.5342 44.5986C53.2624 44.5022 52.973 44.4655 52.6858 44.4908C52.6202 44.4876 52.5546 44.4876 52.4891 44.4908ZM1908.08 3107.5V3111.73H1963.08V3107.5H1908.08ZM1916.54 3118.08V3122.31H1954.62V3118.08H1916.54ZM1908.08 3128.65V3132.88H1963.08V3128.65H1908.08ZM1916.54 3139.23V3143.46H1954.62V3139.23H1916.54ZM1908.08 3149.81V3154.04H1963.08V3149.81H1908.08Z"
              fill="#22E0FA"/>
    </g>
    <defs>
        <clipPath id="clip0_199_210">
            <rect width="55" height="55" fill="white"/>
        </clipPath>
    </defs>
</svg>
