<svg width="51" height="51" viewBox="0 0 51 51" fill="none" xmlns="http://www.w3.org/2000/svg">
    <g clip-path="url(#clip0_199_204)">
        <path d="M50.6741 11.5601C50.5656 10.8706 50.25 10.2304 49.7693 9.72441C49.2886 9.2184 48.6654 8.87046 47.9825 8.72672L39.6666 6.89922C38.7749 6.70473 37.8517 6.704 36.9596 6.89708C36.0676 7.09016 35.2273 7.47255 34.4958 8.01839L9.91663 25.9251L3.03163 25.6417C2.47816 25.6219 1.93252 25.777 1.4722 26.0849C1.01189 26.3929 0.660305 26.838 0.467392 27.3572C0.274479 27.8763 0.250043 28.4431 0.397556 28.9769C0.545069 29.5107 0.85703 29.9845 1.28913 30.3309L8.37246 35.8984C9.22246 36.9326 9.78913 36.7342 23.8566 29.0701L25.1741 42.4151C25.1961 42.7791 25.3208 43.1294 25.534 43.4254C25.7472 43.7213 26.0399 43.9506 26.3783 44.0867C26.6214 44.184 26.8814 44.2321 27.1433 44.2284C27.6702 44.2123 28.1734 44.006 28.56 43.6476L31.9458 40.5592C32.2829 40.2469 32.5113 39.8348 32.5975 39.3834L35.7 22.5251C40.7575 19.6917 45.5458 17.0284 48.96 15.0876C49.5708 14.744 50.0622 14.2221 50.3685 13.5918C50.6748 12.9614 50.7814 12.2526 50.6741 11.5601ZM47.5575 12.6226C44.0158 14.6342 39.0575 17.4534 33.7308 20.3717L33.15 20.6976L29.8491 38.6467L27.7666 40.5451L26.2083 24.5367L24.3241 25.5001C14.1666 31.1667 10.7808 32.8101 9.61913 33.3201L3.52746 28.4892L10.7241 28.8009L36.2241 10.2992C36.6245 9.99876 37.0841 9.78659 37.5724 9.6767C38.0608 9.56681 38.567 9.56171 39.0575 9.66172L47.345 11.4467C47.4727 11.4699 47.5896 11.5332 47.6788 11.6275C47.768 11.7218 47.8248 11.8421 47.8408 11.9709C47.87 12.0955 47.8581 12.2263 47.8071 12.3437C47.7561 12.4611 47.6685 12.5589 47.5575 12.6226Z" fill="#22E0FA"/>
        <path d="M9.91667 17.765L14.96 19.1817L17.2833 17.4958L11.6167 15.8525L14.1667 14.2942L21.9158 14.0675L25.1742 11.7017L14.1667 12.0417C13.8196 12.0229 13.4748 12.1066 13.175 12.2825L9.44917 14.45C9.14114 14.6325 8.89402 14.902 8.73896 15.2247C8.5839 15.5474 8.52783 15.9088 8.57783 16.2633C8.62782 16.6179 8.78164 16.9496 9.0199 17.2169C9.25816 17.4841 9.57019 17.6748 9.91667 17.765Z" fill="#22E0FA"/>
    </g>
    <defs>
        <clipPath id="clip0_199_204">
            <rect width="51" height="51" fill="white"/>
        </clipPath>
    </defs>
</svg>
