<svg width="60" height="60" viewBox="0 0 60 60" fill="none" xmlns="http://www.w3.org/2000/svg">
    <path d="M43.55 25L33.525 15H22.5V20H31.475L36.475 25H16.25C10 25 5 30 5 36.25C5 42.5 10 47.5 16.25 47.5C21.8 47.5 26.4 43.45 27.3 38.175L32.6 35C32.5 35.425 32.5 35.825 32.5 36.25C32.5 42.5 37.5 47.5 43.75 47.5C50 47.5 55 42.5 55 36.25C55 30 50 25 43.75 25M22.1 38.15C21.25 40.675 18.95 42.5 16.175 42.5C14.5174 42.5 12.9277 41.8415 11.7556 40.6694C10.5835 39.4973 9.925 37.9076 9.925 36.25C9.925 34.5924 10.5835 33.0027 11.7556 31.8306C12.9277 30.6585 14.5174 30 16.175 30C18.975 30 21.25 31.85 22.1 34.375H15V38.125L22.1 38.15ZM43.675 42.5C42.0174 42.5 40.4277 41.8415 39.2556 40.6694C38.0835 39.4973 37.425 37.9076 37.425 36.25C37.425 34.5924 38.0835 33.0027 39.2556 31.8306C40.4277 30.6585 42.0174 30 43.675 30C45.3326 30 46.9223 30.6585 48.0944 31.8306C49.2665 33.0027 49.925 34.5924 49.925 36.25C49.925 37.9076 49.2665 39.4973 48.0944 40.6694C46.9223 41.8415 45.3326 42.5 43.675 42.5Z" fill="#22E0FA"/>
</svg>
