<svg width="50" height="50" viewBox="0 0 50 50" fill="none" xmlns="http://www.w3.org/2000/svg">
    <path d="M30.8542 7.08337L19.5625 9.08337L21.0208 17.2917L1.5271 20.7292L3.33335 30.9792L7.43752 30.2709C7.72918 31.8959 8.64585 33.3334 10.0208 34.2917C11.375 35.25 13.0417 35.625 14.6875 35.3334C16.3125 35.0417 17.7708 34.125 18.75 32.7709C19.6667 31.3959 20.0417 29.7292 19.7917 28.125L32.0625 25.9167C32.3542 27.5625 33.2709 29 34.625 29.9584C35.9792 30.8959 37.6667 31.25 39.2917 31C40.9375 30.7084 42.375 29.7709 43.3333 28.4167C44.2917 27.0834 44.6667 25.375 44.375 23.75L48.4792 23.0209L47.3958 16.875C46.9792 14.5834 44.7917 13.0834 42.5625 13.5417L38.4583 14.2084L30.8542 7.08337ZM23.1875 11.625L30.375 10.3542L35.2917 14.7709L24.1042 16.75L23.1875 11.625ZM13.0625 26.1042C13.4648 26.0323 13.8773 26.0405 14.2763 26.1283C14.6754 26.2162 15.0532 26.382 15.3881 26.6162C15.7229 26.8504 16.0083 27.1484 16.2277 27.4931C16.4471 27.8379 16.5963 28.2225 16.6667 28.625C16.8125 29.4584 16.6667 30.2917 16.1458 30.9584C15.6875 31.6459 14.9583 32.1042 14.1458 32.2917C13.3125 32.3959 12.5 32.2084 11.8125 31.7292C11.4731 31.4957 11.184 31.1966 10.9621 30.8495C10.7403 30.5024 10.5902 30.1144 10.5209 29.7084C10.4167 28.8959 10.5625 28.0625 11.0417 27.375C11.5209 26.7084 12.2292 26.25 13.0625 26.1042ZM37.6667 21.75C38.4792 21.6042 39.3334 21.7917 40 22.2709C40.6875 22.75 41.1458 23.4792 41.2917 24.2917C41.4375 25.1042 41.25 25.9584 40.7708 26.625C40.2917 27.3125 39.5834 27.7709 38.75 27.9167C37.9375 28.0625 37.1042 27.875 36.4583 27.3959C35.75 26.9167 35.2709 26.1875 35.1459 25.375C35 24.5625 35.1875 23.7292 35.6459 23.0417C36.125 22.3542 36.8542 21.875 37.6667 21.75ZM5.89585 39.9375L4.16668 41.6667V45.8334H45.8333V33.3334H34.625C32.3959 33.3334 30.2083 33.6875 28.0417 34.375L25.1667 35.3542C20.9167 36.7709 16.4583 37.5 11.9792 37.5H11.7917C9.58335 37.5 7.45835 38.375 5.89585 39.9375Z" fill="#22E0FA"/>
</svg>
